inDegrees=yes
name=ik_tiny_file
DataType=double
version=3
OpenSimVersion=4.4-2022-07-23-0e9fedc
endheader
time	pelvis_tilt	pelvis_list	pelvis_rotation	pelvis_tx	pelvis_ty	pelvis_tz	hip_flexion_r	hip_adduction_r	hip_rotation_r	knee_angle_r	knee_angle_r_beta	ankle_angle_r	subtalar_angle_r	mtp_angle_r	hip_flexion_l	hip_adduction_l	hip_rotation_l	knee_angle_l	knee_angle_l_beta	ankle_angle_l	subtalar_angle_l	mtp_angle_l	lumbar_extension	lumbar_bending	lumbar_rotation	arm_flex_r	arm_add_r	arm_rot_r	elbow_flex_r	pro_sup_r	wrist_flex_r	wrist_dev_r	arm_flex_l	arm_add_l	arm_rot_l	elbow_flex_l	pro_sup_l	wrist_flex_l	wrist_dev_l
9.119999999999999	3.330975894581348	-4.008251182924035	-2.779597825784824	0	0.9399999999999999	0	34.99973071619612	-9.841566008533206	0	56.20592865381668	0.9809785141501252	-4.195883443066572	0	0	34.99973071619612	-9.841566008533206	0	56.20592865381668	0.9809785141501252	-4.195883443066572	0	0	0.6659552869322609	1.742533650878339	5.609588859551677	24.88450733856371	-10.98819844335616	11.19981216073385	3.703143903266338	45.23071132124898	0	4.993773456229778	-0.7701641761506871	-0.6208615499758998	0.3245783071463986	0.0883651402179122	45.23071132124898	0	4.993773456229778
9.140000000000001	3.365354998510967	-3.988167434429472	-2.767248776273624	0	0.9399999999999999	0	35.00465783868299	-9.841834816144711	0	56.20737157522563	0.9810036978795589	-4.196423532880235	0	0	35.00465783868299	-9.841834816144711	0	56.20737157522563	0.9810036978795589	-4.196423532880235	0	0	0.5260005704799786	1.690516035112547	5.456222812086689	23.71390224160622	-10.70564602432807	10.88371569866251	3.698213671247914	45.23040185249618	0	4.993792206397681	-0.7044533839364591	-0.6132642365240837	0.2331152722327952	0.08837344372556021	45.23040185249618	0	4.993792206397681
9.16	3.411215063789557	-3.956911941009889	-2.76618506810737	0	0.9399999999999999	0	35.00864825435821	-9.842052187545594	0	56.20854077617683	0.9810241042857747	-4.196860830618427	0	0	35.00864825435821	-9.842052187545594	0	56.20854077617683	0.9810241042857747	-4.196860830618427	0	0	0.3442729837571654	1.626738186017557	5.292101022799216	22.61565530440867	-10.51198696486751	10.40559741388586	3.786384393413602	45.23015149951151	0	4.993807347916447	-0.6158171623165978	-0.6038201951472315	0.1516499113608618	0.08915775148963054	45.23015149951151	0	4.993807347916447
9.18	3.45368195921292	-3.94556720312897	-2.786870880458097	0	0.9399999999999999	0	35.01295649586697	-9.842286579272781	0	56.20980349634583	0.9810461429102552	-4.197332864665951	0	0	35.01295649586697	-9.842286579272781	0	56.20980349634583	0.9810461429102552	-4.197332864665951	0	0	0.1723153551602739	1.608704111069091	5.207650146241918	21.30073960447505	-10.31015734503035	9.624942381151246	4.213131759351491	45.22988145041961	0	4.993823655134234	-0.5130112753172403	-0.6481134524716579	0.0755143176074313	0.08974542039463618	45.22988145041961	0	4.993823655134234
9.199999999999999	3.436427795850211	-3.947541268039677	-2.833849104620209	0	0.9399999999999999	0	35.016735631899	-9.842491987274483	0	56.21091124960337	0.9810654768518989	-4.197746873097902	0	0	35.016735631899	-9.842491987274483	0	56.21091124960337	0.9810654768518989	-4.197746873097902	0	0	-0.01822512082715769	1.618019038678217	5.164545911058275	20.32075857670372	-10.1047101108218	9.105916316762009	4.21110681474723	45.22964472602586	0	4.993837930622886	-0.3397759091764159	-0.6593370525796588	-0.02368196046713243	0.0898683458820419	45.22964472602586	0	4.993837930622886
9.220000000000001	3.366775150712941	-3.949896523694155	-2.876933841785686	0	0.9399999999999999	0	35.02024119276749	-9.842682378716907	0	56.21193882520677	0.9810834114294914	-4.198130874856186	0	0	35.02024119276749	-9.842682378716907	0	56.21193882520677	0.9810834114294914	-4.198130874856186	0	0	-0.1133991187039859	1.598437302642296	5.035898164495791	19.60187471519491	-9.729723035638342	9.024330986971409	3.924035254049431	45.22942525451627	0	4.993851150319053	-0.2234479809483255	-0.6650770257273716	-0.1411719650816729	0.09013861050860775	45.22942525451627	0	4.993851150319053
9.24	3.260692292686786	-3.913247148853794	-2.910532881939095	0	0.9399999999999999	0	35.02516867130052	-9.842949873344686	0	56.2133826557524	0.9811086110263535	-4.198670636457821	0	0	35.02516867130052	-9.842949873344686	0	56.2133826557524	0.9811086110263535	-4.198670636457821	0	0	-0.05006416797123871	1.520174411345787	4.811845003433561	18.91765456741444	-9.182537730687947	9.27906466084541	3.377933623530926	45.22911683987628	0	4.993869706753479	-0.166818417199474	-0.7748850895342175	-0.3899880088183926	0.0904061353247734	45.22911683987628	0	4.993869706753479
9.26	3.217155504864768	-3.887096657715595	-2.94774079761286	0	0.9399999999999999	0	35.02987244122657	-9.843204867517102	0	56.21476131655341	0.9811326731965994	-4.199185784876504	0	0	35.02987244122657	-9.843204867517102	0	56.21476131655341	0.9811326731965994	-4.199185784876504	0	0	-0.01168904613543453	1.46919774374134	4.612331958487391	18.4753849548091	-8.645229607736802	10.24216681826759	2.35093453262615	45.22882272089847	0	4.993887370760636	-0.1666055219839026	-0.8902284208440551	-0.5493667139037103	0.090534519877547	45.22882272089847	0	4.993887370760636
9.279999999999999	3.183233375683905	-3.865594655664089	-2.963864618075599	0	0.9399999999999999	0	35.03505317489631	-9.843485420657288	0	56.21627981962427	0.9811591760748875	-4.19975309491359	0	0	35.03505317489631	-9.843485420657288	0	56.21627981962427	0.9811591760748875	-4.19975309491359	0	0	-0.01563999020740747	1.398767456074628	4.367214703006518	18.12232854343054	-8.232890939437564	11.3786684737601	1.419518903399648	45.2284990143056	0	4.993906780933555	-0.2140160159161481	-0.9724087536960708	-0.6326378968451608	0.09096017402011486	45.2284990143056	0	4.993906780933555
9.300000000000001	3.190643528223231	-3.871484757313784	-3.000271451855712	0	0.9399999999999999	0	35.03833750480116	-9.843662992234535	0	56.21724306557009	0.9811759878881485	-4.200112638478585	0	0	35.03833750480116	-9.843662992234535	0	56.21724306557009	0.9811759878881485	-4.200112638478585	0	0	-0.1036859253120573	1.365031972149755	4.240123441029505	17.51098523649834	-7.721569645767946	11.94080541482141	0.8885179181232368	45.22829404518318	0	4.993919049470035	-0.2350068972977044	-0.9311249392297423	-0.6636939608518018	0.09108502480560277	45.22829404518318	0	4.993919049470035
9.32	3.154455469703638	-3.853644461417824	-2.990155997290438	0	0.9399999999999999	0	35.04306226139792	-9.843918277248941	0	56.218628530557	0.9812001688138412	-4.200629842594712	0	0	35.04306226139792	-9.843918277248941	0	56.218628530557	0.9812001688138412	-4.200629842594712	0	0	-0.149354507453637	1.28573025270453	4.069566847497128	16.44216708734337	-7.193755062948957	12.46019532908306	0.9087525566946846	45.22799930390411	0	4.993936670617702	-0.1847558735827933	-0.9453958124772961	-0.7631442732883924	0.09194697470963073	45.22799930390411	0	4.993936670617702
9.34	3.167531582295755	-3.848542404271741	-3.01862411528383	0	0.9399999999999999	0	35.04715849827569	-9.844139326903868	0	56.2198300152825	0.9812211386782137	-4.201078159143893	0	0	35.04715849827569	-9.844139326903868	0	56.2198300152825	0.9812211386782137	-4.201078159143893	0	0	-0.2075528303264826	1.212066287436883	3.90138988454178	15.39439979676447	-6.702925358039694	13.0367784904416	0.82833645400496	45.22774399957582	0	4.993951909535015	-0.1628295845040047	-1.010948386499436	-0.9761127760455799	0.09369829855323629	45.22774399957582	0	4.993951909535015
